<?xml version="1.0" encoding="UTF-8" standalone="no"?><!DOCTYPE svg PUBLIC "-//W3C//DTD SVG 1.1//EN" "http://www.w3.org/Graphics/SVG/1.1/DTD/svg11.dtd"><svg width="100%" height="100%" viewBox="0 0 2837 1050" version="1.1" xmlns="http://www.w3.org/2000/svg" xmlns:xlink="http://www.w3.org/1999/xlink" xml:space="preserve" xmlns:serif="http://www.serif.com/" style="fill-rule:evenodd;clip-rule:evenodd;stroke-linejoin:round;stroke-miterlimit:2;"><g id="URP_Basic"></g><rect id="URP_Alpha" x="0" y="0" width="2836.32" height="1050" style="fill:none;"/><g id="URP_Basic_Mesh"><g id="Text" transform="matrix(5.0597,0,0,5.0597,-10337.7,-5873.67)"><text x="2409.15px" y="1259.12px" style="font-family:'Teko-Medium', 'Teko';font-weight:500;font-size:50px;">texture</text><text x="2409.15px" y="1309.12px" style="font-family:'Teko-Medium', 'Teko';font-weight:500;font-size:50px;">convertor</text></g><path id="Border" d="M2790,154.5l-104.5,-104.5l-2531,0l-104.5,104.5l-0,741l104.5,104.5l2531,0l104.5,-104.5l-0,-741Zm-46.133,19.109l-0,702.782c-0,-0 -77.476,77.476 -77.476,77.476c-0,-0 -2492.78,-0 -2492.78,-0c0,-0 -77.476,-77.476 -77.476,-77.476c0,-103.797 0,-598.985 0,-702.782c0,0 77.476,-77.476 77.476,-77.476c0,0 2492.78,0 2492.78,0c-0,0 77.476,77.476 77.476,77.476Z"/><path id="Letters" d="M1313.16,250.098l-0,500l100,-0l-0,-200l300,-0l-0,-300l-400,-0Zm-1000,-0l-0,500l400,-0l-0,-500l-100,-0l-0,400l-200,-0l-0,-400l-100,-0Zm500,-0l-0,500l100,-0l-0,-200l100,-0l-0,200l100,-0l-0,-200l100,-0l-0,-300l-400,-0Zm4.167,4.166l391.666,0c0,0 0,255.768 0,291.667c0,0 -100,0 -100,0l0,200c0,0 -91.666,0 -91.666,0l-0,-200l-108.334,0l0,200c0,0 -91.666,0 -91.666,0l-0,-491.667Zm500,0l391.666,0c0,0 0,255.768 0,291.667c0,0 -300,0 -300,0l0,200c0,0 -91.666,0 -91.666,0l-0,-491.667Zm-1000,0l91.666,0l0,400l208.334,0l-0,-400c-0,0 91.666,0 91.666,0c0,45.341 0,446.327 0,491.667c0,0 -349.411,0 -391.666,0l-0,-491.667Zm800,91.667l-208.334,0l0,108.333l208.334,0l-0,-108.333Zm500,0l-208.334,0l0,108.333l208.334,0l-0,-108.333Zm-704.167,4.167l-0,100l200,-0l-0,-100l-200,-0Zm500,-0l-0,100l200,-0l-0,-100l-200,-0Z"/><path id="Shadows" d="M313.158,250.098l-60,60l-0,500l400,-0l60,-60l-400,-0l-0,-500Zm600,360l40,-0l-0,200l100,-0l60,-60l-100,-0l-0,-200l-100,-0l-0,60Zm400,-360l-60,60l-0,500l100,-0l60,-60l-100,-0l-0,-500Zm-500,-0l-60,60l-0,500l100,-0l60,-60l-100,-0l-0,-500Zm-200,-0l-60,60l-0,340l60,-0l-0,-400Zm600,300l-60,60l-40,-0l-0,-60l100,-0Zm200,60l240,-0l60,-60l-300,-0l-0,60Zm-500,-200l140,-0l-0,40l60,-0l-0,-100l-200,-0l-0,60Zm500,-0l140,-0l-0,40l60,-0l-0,-100l-200,-0l-0,60Z" style="fill:#17000b;"/></g></svg>