<?xml version="1.0" encoding="UTF-8" standalone="no"?>
<!DOCTYPE svg PUBLIC "-//W3C//DTD SVG 1.1//EN" "http://www.w3.org/Graphics/SVG/1.1/DTD/svg11.dtd">
<svg width="100%" height="100%" viewBox="0 0 13496 5750" version="1.1" xmlns="http://www.w3.org/2000/svg" xmlns:xlink="http://www.w3.org/1999/xlink" xml:space="preserve" xmlns:serif="http://www.serif.com/" style="fill-rule:evenodd;clip-rule:evenodd;stroke-linecap:square;stroke-miterlimit:2;">
    <g transform="matrix(4.16667,0,0,4.16667,0,0)">
        <g transform="matrix(1.12256,0,0,1.05241,-340.734,-118.01)">
            <path d="M3131,486.75C3131,323.521 3006.76,191 2853.73,191L181.268,191C28.24,191 -96,323.521 -96,486.75L-96,1078.25C-96,1241.48 28.24,1374 181.268,1374L2853.73,1374C3006.76,1374 3131,1241.48 3131,1078.25L3131,486.75Z" style="fill:rgb(242,242,242);"/>
        </g>
        <g id="URP_Texture_Convertor_Logo_Final.svg" transform="matrix(1,0,0,1,1587,705.5)">
            <g transform="matrix(1,0,0,1,-1418.5,-525)">
                <clipPath id="_clip1">
                    <rect x="0" y="0" width="2837" height="1050"/>
                </clipPath>
                <g clip-path="url(#_clip1)">
                    <rect id="URP_Final" x="0" y="0" width="2836.32" height="1050" style="fill:none;"/>
                    <g>
                        <g id="URP_Basic_Render">
                            <g id="Text" transform="matrix(5.0597,0,0,5.0597,-10337.7,-5873.67)">
                                <g transform="matrix(1,0,0,1,2409.15,1259.12)">
                                    <text x="0px" y="0px" style="font-family:'Teko-Medium', 'Teko';font-weight:500;font-size:50px;">texture</text>
                                </g>
                                <g transform="matrix(1,0,0,1,2409.15,1309.12)">
                                    <text x="0px" y="0px" style="font-family:'Teko-Medium', 'Teko';font-weight:500;font-size:50px;">convertor</text>
                                </g>
                            </g>
                            <path id="Border" d="M2790,154.5L2685.5,50L154.5,50L50,154.5L50,895.5L154.5,1000L2685.5,1000L2790,895.5L2790,154.5Z" style="fill:none;stroke:rgb(183,158,255);stroke-width:69.38px;"/>
                            <path d="M2790,154.5L2685.5,50L154.5,50L50,154.5L50,895.5L154.5,1000L2685.5,1000L2790,895.5L2790,154.5ZM2743.87,173.609L2743.87,876.391C2743.87,876.391 2691.73,928.524 2666.39,953.867L173.611,953.867L96.135,876.391L96.135,173.609L173.611,96.133L2666.39,96.133L2743.87,173.609Z"/>
                            <path id="Letters" d="M1313.16,250.098L1313.16,750.098L1413.16,750.098L1413.16,550.098L1713.16,550.098L1713.16,250.098L1313.16,250.098ZM313.16,250.098L313.16,750.098L713.16,750.098L713.16,250.098L613.16,250.098L613.16,650.098L413.16,650.098L413.16,250.098L313.16,250.098ZM813.16,250.098L813.16,750.098L913.16,750.098L913.16,550.098L1013.16,550.098L1013.16,750.098L1113.16,750.098L1113.16,550.098L1213.16,550.098L1213.16,250.098L813.16,250.098ZM913.16,350.098L913.16,450.098L1113.16,450.098L1113.16,350.098L913.16,350.098ZM1413.16,350.098L1413.16,450.098L1613.16,450.098L1613.16,350.098L1413.16,350.098Z" style="fill:white;"/>
                            <g>
                                <clipPath id="_clip2">
                                    <path d="M1313.16,250.098L1313.16,750.098L1413.16,750.098L1413.16,550.098L1713.16,550.098L1713.16,250.098L1313.16,250.098ZM313.16,250.098L313.16,750.098L713.16,750.098L713.16,250.098L613.16,250.098L613.16,650.098L413.16,650.098L413.16,250.098L313.16,250.098ZM813.16,250.098L813.16,750.098L913.16,750.098L913.16,550.098L1013.16,550.098L1013.16,750.098L1113.16,750.098L1113.16,550.098L1213.16,550.098L1213.16,250.098L813.16,250.098ZM913.16,350.098L913.16,450.098L1113.16,450.098L1113.16,350.098L913.16,350.098ZM1413.16,350.098L1413.16,450.098L1613.16,450.098L1613.16,350.098L1413.16,350.098Z"/>
                                </clipPath>
                                <g clip-path="url(#_clip2)">
                                    <path d="M190,503.103C190,503.103 480.061,512.198 610,590C739.939,667.802 1129.92,629.113 1230,590C1330.08,550.887 1509.33,400.851 1950,590L1950,850L190,850L190,503.103Z" style="fill:rgb(183,158,255);"/>
                                </g>
                            </g>
                            <path d="M1313.16,250.098L1313.16,750.098L1413.16,750.098L1413.16,550.098L1713.16,550.098L1713.16,250.098L1313.16,250.098ZM313.16,250.098L313.16,750.098L713.16,750.098L713.16,250.098L613.16,250.098L613.16,650.098L413.16,650.098L413.16,250.098L313.16,250.098ZM813.16,250.098L813.16,750.098L913.16,750.098L913.16,550.098L1013.16,550.098L1013.16,750.098L1113.16,750.098L1113.16,550.098L1213.16,550.098L1213.16,250.098L813.16,250.098ZM817.327,254.264L1208.99,254.264L1208.99,545.931L1108.99,545.931L1108.99,745.931L1017.33,745.931L1017.33,545.931L908.993,545.931L908.993,745.931L817.327,745.931L817.327,254.264ZM1317.33,254.264L1708.99,254.264L1708.99,545.931L1408.99,545.931L1408.99,745.931L1317.33,745.931L1317.33,254.264ZM317.327,254.264L408.993,254.264L408.993,654.264L617.327,654.264L617.327,254.264L708.993,254.264L708.993,745.931L317.327,745.931L317.327,254.264ZM1117.33,345.931L908.993,345.931L908.993,454.264L1117.33,454.264L1117.33,345.931ZM1617.33,345.931L1408.99,345.931L1408.99,454.264L1617.33,454.264L1617.33,345.931ZM913.16,350.098L913.16,450.098L1113.16,450.098L1113.16,350.098L913.16,350.098ZM1413.16,350.098L1413.16,450.098L1613.16,450.098L1613.16,350.098L1413.16,350.098Z"/>
                            <path id="Shadows" d="M313.158,250.098L253.158,310.098L253.158,810.098L653.158,810.098L713.158,750.098L313.158,750.098L313.158,250.098ZM913.158,610.098L953.158,610.098L953.158,810.098L1053.16,810.098L1113.16,750.098L1013.16,750.098L1013.16,550.098L913.158,550.098L913.158,610.098ZM1313.16,250.098L1253.16,310.098L1253.16,810.098L1353.16,810.098L1413.16,750.098L1313.16,750.098L1313.16,250.098ZM813.158,250.098L753.158,310.098L753.158,810.098L853.158,810.098L913.158,750.098L813.158,750.098L813.158,250.098ZM613.158,250.098L553.158,310.098L553.158,650.098L613.158,650.098L613.158,250.098ZM1213.16,550.098L1153.16,610.098L1113.16,610.098L1113.16,550.098L1213.16,550.098ZM1413.16,610.098L1653.16,610.098L1713.16,550.098L1413.16,550.098L1413.16,610.098ZM913.158,410.098L1053.16,410.098L1053.16,450.098L1113.16,450.098L1113.16,350.098L913.158,350.098L913.158,410.098ZM1413.16,410.098L1553.16,410.098L1553.16,450.098L1613.16,450.098L1613.16,350.098L1413.16,350.098L1413.16,410.098Z" style="fill:rgb(23,0,11);"/>
                        </g>
                    </g>
                </g>
            </g>
        </g>
    </g>
</svg>
